<?xml version="1.0" encoding="UTF-8" standalone="no"?>
<!-- Created with Inkscape (http://www.inkscape.org/) -->

<svg
        width="191.22774mm"
        height="191.22774mm"
        viewBox="0 0 191.22774 191.22774"
        version="1.1"
        id="svg1"
        xmlns="http://www.w3.org/2000/svg"
>
    <defs
            id="defs1"/>
    <g
            id="layer1"
            transform="translate(-9.3861267,-52.886126)">
        <g
                id="g6"
                transform="matrix(2.1742412,0,0,2.1742412,-97.594654,-64.125555)">
            <circle
                    style="fill:#000000;stroke-width:0.264583"
                    id="path1"
                    cx="93.179474"
                    cy="97.792992"
                    r="43.975742"/>
            <path
                    id="path2"
                    style="fill:#fefefe;fill-opacity:1;stroke:#000000;stroke-width:0.215161;stroke-opacity:1"
                    d="m 86.424011,64.789916 c -0.182863,0.08565 -0.377781,0.191145 -0.598418,0.339978 -4.901253,3.306138 -4.411227,17.247363 -4.411227,17.247363 0,0 -0.196402,21.357963 -4.901644,33.727793 -4.70524,12.36983 -8.418606,12.25116 -8.418606,12.25116 0,0 -0.57109,3.15824 6.501486,3.13287 12.642068,-0.0455 11.38884,-46.096984 11.38884,-49.111823 0,-5.294985 2.179135,-12.861561 2.049076,-16.148028 a 1.6362319,1.6362319 0 0 1 -1.609507,-1.439313 z"/>
            <circle
                    style="fill:#fefefe;fill-opacity:1;stroke:#000000;stroke-width:0.215161;stroke-opacity:1"
                    id="circle3"
                    cx="88.094017"
                    cy="64.507835"
                    r="1.6362319"/>
            <path
                    style="fill:#f1e600;fill-opacity:1;stroke:#000000;stroke-width:0.215161;stroke-opacity:1"
                    d="m 74.48269,87.576665 19.590287,-6.879846 c 0,0 3.523651,-4.56892 3.523651,-7.359354 0,-2.790426 -9.265519,-6.935714 -9.265519,-6.935714 0,0 6.872392,4.512769 6.872392,6.74082 0,2.22806 -1.19179,7.559916 -1.19179,7.559916 H 76.689018 c -1.740192,2.046772 -2.548254,4.54959 -2.206328,6.874178 z"
                    id="path3"/>
            <path
                    id="path4"
                    style="fill:#fefefe;fill-opacity:1;stroke:#000000;stroke-width:0.215161;stroke-opacity:1"
                    d="m 107.62474,64.789916 c -0.18287,0.08565 -0.37779,0.191145 -0.59842,0.339978 -4.90125,3.306138 -4.41123,17.247363 -4.41123,17.247363 0,0 -0.1964,21.357963 -4.901643,33.727793 -4.70524,12.36983 -8.418606,12.25116 -8.418606,12.25116 0,0 -0.57109,3.15824 6.501486,3.13287 12.642063,-0.0455 11.388843,-46.096984 11.388843,-49.111823 0,-5.294985 2.17913,-12.861561 2.04907,-16.148028 a 1.6362319,1.6362319 0 0 1 -1.6095,-1.439313 z"/>
            <circle
                    style="fill:#fefefe;fill-opacity:1;stroke:#000000;stroke-width:0.215161;stroke-opacity:1"
                    id="circle4"
                    cx="109.29474"
                    cy="64.507835"
                    r="1.6362319"/>
            <path
                    style="fill:#f1e600;fill-opacity:1;stroke:#000000;stroke-width:0.215161;stroke-opacity:1"
                    d="M 95.683415,87.576665 115.2737,80.696819 c 0,0 3.52365,-4.56892 3.52365,-7.359354 0,-2.790426 -9.26552,-6.935714 -9.26552,-6.935714 0,0 6.8724,4.512769 6.8724,6.74082 0,2.22806 -1.19179,7.559916 -1.19179,7.559916 H 97.889743 c -1.740192,2.046772 -2.548254,4.54959 -2.206328,6.874178 z"
                    id="path5"/>
        </g>
    </g>
</svg>
